<svg width="9" height="8" viewBox="0 0 9 8" fill="none" xmlns="http://www.w3.org/2000/svg">
<path d="M8.35714 3.14286H5.46429V0.571429C5.46429 0.255893 5.17641 0 4.82143 0H4.17857C3.82359 0 3.53571 0.255893 3.53571 0.571429V3.14286H0.642857C0.287879 3.14286 0 3.39875 0 3.71429V4.28571C0 4.60125 0.287879 4.85714 0.642857 4.85714H3.53571V7.42857C3.53571 7.74411 3.82359 8 4.17857 8H4.82143C5.17641 8 5.46429 7.74411 5.46429 7.42857V4.85714H8.35714C8.71212 4.85714 9 4.60125 9 4.28571V3.71429C9 3.39875 8.71212 3.14286 8.35714 3.14286Z" fill="white"/>
</svg>
