<svg width="17" height="17" viewBox="0 0 17 17" fill="none" xmlns="http://www.w3.org/2000/svg">
<path d="M5.91266 2.51558C6.32927 2.4376 6.74697 2.64561 6.92874 3.02157C6.97399 3.08979 7.0102 3.16339 7.03651 3.24059C7.15197 5.0229 7.27513 6.775 7.3906 8.52711C7.38797 8.70924 7.41659 8.8905 7.47527 9.06331C7.6134 9.40333 7.95716 9.61905 8.3297 9.59952L13.9874 9.23701L14.0259 9.25212L14.1292 9.25955C14.3337 9.28573 14.5244 9.37909 14.6692 9.52599C14.8381 9.69737 14.9307 9.92757 14.9267 10.1659C14.7036 13.4147 12.3217 16.1292 9.08035 16.8285C5.83897 17.5278 2.51615 16.0441 0.924614 13.1868C0.456635 12.3639 0.160907 11.4575 0.0547859 10.5209C0.0136266 10.2434 -0.00439416 9.963 0.000902689 9.68259C0.0116301 6.22801 2.47118 3.24621 5.91266 2.51558ZM9.27651 0.000701164C13.1617 0.117007 16.4087 2.93743 16.9972 6.70704C17.0009 6.72954 17.0009 6.7525 16.9972 6.775L16.9962 6.88142C16.9834 7.0221 16.9256 7.15626 16.8297 7.26397C16.7098 7.39861 16.5401 7.48084 16.3583 7.49246L9.83074 7.92294L9.72319 7.92507C9.54502 7.91638 9.37416 7.84708 9.24107 7.72728C9.08136 7.58353 8.99082 7.38037 8.9917 7.16772L8.55293 0.755919V0.650188C8.56092 0.469859 8.64169 0.300053 8.77743 0.178213C8.91316 0.0563739 9.09272 -0.0074912 9.27651 0.000701164Z" fill="white"/>
</svg>
