<svg width="12" height="12" viewBox="0 0 12 12" fill="none" xmlns="http://www.w3.org/2000/svg">
<path fill-rule="evenodd" clip-rule="evenodd" d="M12 6C12 9.3138 9.3138 12 6 12C2.6862 12 0 9.3138 0 6C0 2.6862 2.6862 0 6 0C9.3138 0 12 2.6862 12 6ZM10.8 6C10.8 7.27304 10.2943 8.49394 9.39411 9.39411C8.49394 10.2943 7.27304 10.8 6 10.8C4.72696 10.8 3.50606 10.2943 2.60589 9.39411C1.70571 8.49394 1.2 7.27304 1.2 6C1.2 4.72696 1.70571 3.50606 2.60589 2.60589C3.50606 1.70571 4.72696 1.2 6 1.2C7.27304 1.2 8.49394 1.70571 9.39411 2.60589C10.2943 3.50606 10.8 4.72696 10.8 6Z" fill="black"/>
</svg>
